inDegrees=yes
name=ik_S57_A03_T01
DataType=double
version=3
OpenSimVersion=4.3-2021-08-27-4bc7ad9
endheader
time	pelvis_tilt	pelvis_list	pelvis_rotation	pelvis_tx	pelvis_ty	pelvis_tz	hip_flexion_r	hip_adduction_r	hip_rotation_r	knee_angle_r	knee_angle_r_beta	ankle_angle_r	subtalar_angle_r	mtp_angle_r	hip_flexion_l	hip_adduction_l	hip_rotation_l	knee_angle_l	knee_angle_l_beta	ankle_angle_l	subtalar_angle_l	mtp_angle_l	lumbar_extension	lumbar_bending	lumbar_rotation	arm_flex_r	arm_add_r	arm_rot_r	elbow_flex_r	pro_sup_r	wrist_flex_r	wrist_dev_r	arm_flex_l	arm_add_l	arm_rot_l	elbow_flex_l	pro_sup_l	wrist_flex_l	wrist_dev_l
9.279999999999891	2.31830561286399	1.559813279313699	101.922041509914	0	0.9399999999999999	0	-5.224252501476407	7.642197975834955	0.09794512831735347	9.944101440291794	0.1735573112854021	0	0	0	17.40638315267093	-3.311046851943688	-4.21615253166653	-5.649905582782965	-0.09860945484637179	0	0	0	0	0	0	28.64923288957343	-28.64923288957341	4.114076777340586	73.08497985159879	85.8859234543289	0	0	28.64923288957343	-28.64923288957341	4.114076777340586	73.08497985159879	85.88592345416401	0	0
9.299999999999891	2.362075458750147	1.509695584772832	101.8099235564301	0	0.9399999999999999	0	-5.191206624895872	7.509435276358626	0.108413575280275	11.89079886305332	0.2075335908526788	0	0	0	16.79607747175416	-3.444819365880506	-4.034948937990052	-8.574073932340243	-0.1496458204287548	0	0	0	0	0	0	28.6533298697311	-28.65332986973109	4.114510282274878	73.090897555903	85.8854899494177	0	0	28.6533298697311	-28.65332986973109	4.114510282274878	73.090897555903	85.88548994925269	0	0
9.31999999999989	2.279595559595629	1.429068646823914	101.8275844544411	0	0.9399999999999999	0	-5.157259648296912	7.248414991605153	-0.05320111643885957	13.97773351526494	0.2439574718077343	0	0	0	15.7699116686672	-2.357553735499192	-6.965096004175341	-9.418983101552538	-0.1643922673117992	0	0	0	0	0	0	28.68542500968272	-28.68542500968271	4.117569540459964	73.13243788568343	85.88243069139176	0	0	28.68542500968272	-28.68542500968271	4.117569540459964	73.13243788568343	85.88243069122731	0	0
9.33999999999989	2.114303213162892	1.532446326282898	101.9692633400432	0	0.9399999999999999	0	-5.292575774602057	7.007927491200006	-0.2545773716836158	15.04381217009234	0.2625640544197045	0	0	0	15.7720766622524	-2.171977709366219	-5.421979180315009	-9.01231084491017	-0.1572944974568745	0	0	0	0	0	0	28.69371520691165	-28.69371520691164	4.118460098564043	73.14460210323045	85.88154013333487	0	0	28.69371520691165	-28.69371520691164	4.118460098564043	73.14460210323045	85.88154013317057	0	0
9.359999999999889	1.819623845031698	1.883047517287202	102.263204624234	0	0.9399999999999999	0	-6.214428153678947	7.058583311791202	0.6598233111978509	16.30938534400224	0.2846524732293471	0	0	0	15.3684527802264	-1.792148011849546	-5.073480716762926	-7.739351920462082	-0.1350771729826096	0	0	0	0	0	0	28.69814388742637	-28.69814388742635	4.118935619226076	73.15109710147519	85.88106461269801	0	0	28.69814388742637	-28.69814388742635	4.118935619226076	73.15109710147519	85.88106461253382	0	0
9.379999999999889	1.504150026625152	2.073650913520433	102.6841880783654	0	0.9399999999999999	0	-6.41637716757049	6.684530136880927	0.2902928758405741	18.78143930811427	0.3277979541900797	0	0	0	15.45319507115835	-1.314169690046163	-2.297635922381959	-7.20915968165168	-0.1258235727468481	0	0	0	0	0	0	28.76818544970084	-28.76818544970082	4.125466919384985	73.23967605841146	85.87453331287757	0	0	28.76818544970084	-28.76818544970082	4.125466919384985	73.23967605841146	85.87453331271465	0	0
9.399999999999888	1.080310358791492	2.065361764940073	103.1284028812526	0	0.9399999999999999	0	-6.22608625847895	5.824620687899404	-0.1764949761282247	23.12989543277107	0.4036928309438539	0	0	0	15.00325248813637	0.4655088691341415	1.826068317955064	-5.499469162043688	-0.09598384398955592	0	0	0	0	0	0	28.85321038805855	-28.85321038805854	4.133316319567891	73.34607664797601	85.86668391310089	0	0	28.85321038805855	-28.85321038805854	4.133316319567891	73.34607664797601	85.86668391293939	0	0
9.419999999999888	0.4929753030594377	1.987982838533395	103.8410802977228	0	0.9399999999999999	0	-5.730511767034483	4.877837322173631	-0.7575183875801819	25.02457547948641	0.4367612360308765	0	0	0	13.5453007116827	0.8313569442122164	1.759428089919379	-5.417471756840472	-0.09455271929066787	0	0	0	0	0	0	28.85837469050832	-28.85837469050831	4.133866974181107	73.35359280069603	85.86613325851684	0	0	28.85837469050832	-28.85837469050831	4.133866974181107	73.35359280069603	85.8661332583554	0	0
9.439999999999888	0.4895672277342852	1.990720226038026	103.8315413843758	0	0.9399999999999999	0	-5.738050739787832	4.87339479206535	-0.7472497582432421	25.04113761129195	0.4370502997620325	0	0	0	12.61220665616801	0.5548627671797265	0.2720038874380584	-4.840269594716037	-0.08447864111196636	0	0	0	0	0	0	28.86260489739039	-28.86260489739038	4.134317098690589	73.35973599185046	85.86568313403112	0	0	28.86260489739039	-28.86260489739038	4.134317098690589	73.35973599185046	85.86568313386979	0	0
9.459999999999887	-0.2610382154779948	1.614348729306975	105.6013074065147	0	0.9399999999999999	0	-4.641024280791777	3.253236148473495	-2.564892462674965	28.37299851047825	0.4952022426712924	0	0	0	12.41341229223806	1.791428568339813	2.359985673349573	-4.072829594339958	-0.07108428629389728	0	0	0	0	0	0	28.87207095992577	-28.87207095992575	4.13532099054303	73.37343452247359	85.86467924223162	0	0	28.87207095992577	-28.87207095992575	4.13532099054303	73.37343452247359	85.86467924207057	0	0
9.479999999999887	-0.4219137773546993	1.635748838278006	106.1201819599616	0	0.9399999999999999	0	-1.759238030005918	1.332795779715003	-2.517635026523465	31.72650053613485	0.5537318944912993	0	0	0	11.77030745603243	1.565517819903101	5.505589812360278	-4.451080251745241	-0.07768600566345253	0	0	0	0	0	0	28.96596797994017	-28.96596797994016	4.143914030330343	73.48985271986952	85.85608620288818	0	0	28.96596797994017	-28.96596797994016	4.143914030330343	73.48985271986952	85.8560862027287	0	0
9.499999999999886	-0.537097922182508	1.618957298404563	106.4859525050908	0	0.9399999999999999	0	0.1068152580813585	-0.6568315095077788	-3.175577396948702	39.51035994827769	0.6895858697455421	0	0	0	11.1348561094818	1.691220923408089	7.625086829174746	-4.715989968045029	-0.08230955243340793	0	0	0	0	0	0	29.10766268019458	-29.10766268019457	4.156832975247588	73.66483720377892	85.84316725863778	0	0	29.10766268019458	-29.10766268019457	4.156832975247588	73.66483720377892	85.84316725848069	0	0
9.519999999999886	-0.5968497654213013	1.483174007084683	106.844508235261	0	0.9399999999999999	0	2.197949446973612	-2.218745669566486	-2.890272614825061	48.63069311953863	0.8487657124629013	0	0	0	10.54568933443066	2.869905355144056	5.13393127679746	-3.738491064090999	-0.06524897812477427	0	0	0	0	0	0	29.21520764692008	-29.21520764692007	4.166571494494365	73.7967035390578	85.83342873989325	0	0	29.21520764692008	-29.21520764692007	4.166571494494365	73.7967035390578	85.83342873973797	0	0
9.539999999999885	-0.7316424366474599	1.494784971828112	107.1086932208628	0	0.9399999999999999	0	4.009425712703381	-3.242393928896766	-3.264359031738124	52.67660258623154	0.9193801538943005	0	0	0	9.97245605245371	4.44403775728875	-0.3921700660256678	-1.568940743605185	-0.02738318174459864	0	0	0	0	0	0	29.32403994285297	-29.32403994285296	4.176414426589275	73.9299698218789	85.82358580830576	0	0	29.32403994285297	-29.32403994285296	4.176414426589275	73.9299698218789	85.82358580815232	0	0
9.559999999999885	-0.8653640295513633	1.606472190326994	107.16288541508	0	0.9399999999999999	0	5.707957310009729	-3.816504912243065	-3.489439968851185	56.20756301510878	0.9810070391358395	0	0	0	9.289104003837753	4.844459080459726	-1.517686347696787	-0.8909771969288953	-0.01555048564659913	0	0	0	0	0	0	29.33051849062557	-29.33051849062556	4.177088830856603	73.93915650994967	85.82291140407393	0	0	29.33051849062557	-29.33051849062556	4.177088830856603	73.93915650994967	85.8229114039206	0	0
9.579999999999885	-0.9742965480301379	1.741287099527074	107.2582378186606	0	0.9399999999999999	0	7.289621614400176	-3.974449061286677	-3.885652913680219	58.83913676734743	1.026936665621465	0	0	0	8.396789174734076	4.776959807283993	2.333766400932398	-1.932021374677141	-0.03372013420702311	0	0	0	0	0	0	29.34873270308246	-29.34873270308244	4.178831417443003	73.96280890674193	85.82116881757817	0	0	29.34873270308246	-29.34873270308244	4.178831417443003	73.96280890674193	85.82116881742517	0	0
